# xmcd
#
# Track frame offsets: 
#        150
#        15356
#        35362
#        48637
#        63562
#        82640
#        99468
#        111655
#        125755
#        140830
#        154086
#        164215
#        184593
#
# Disc length: 2616 seconds
#
# Revision: 0
# Processed by: cddbd v1.5.2PL0 Copyright (c) Steve Scherf et al.
# Submitted via: ExactAudioCopy v0.99pb5
#
DISCID=b40a360d
DTITLE=Wilko Johnson - The Best Of Wilko Johnson Vol 2
DYEAR=2010
DGENRE=R&B
TTITLE0=All Right
TTITLE1=Barbed Wire Blues
TTITLE2=Roxette
TTITLE3=Down By The Water Side
TTITLE4=Dr Dupree
TTITLE5=Living In The Heart Of Love
TTITLE6=Turned 21
TTITLE7=I Really Love Your Rock 'N' Roll
TTITLE8=I Keep It To Myself
TTITLE9=The Hook
TTITLE10=Twenty Yards Behind
TTITLE11=Out In The Traffic
TTITLE12=She Does It Right
EXTD=
EXTT0=
EXTT1=
EXTT2=
EXTT3=
EXTT4=
EXTT5=
EXTT6=
EXTT7=
EXTT8=
EXTT9=
EXTT10=
EXTT11=
EXTT12=
PLAYORDER=
